<svg width="16" height="20" viewBox="0 0 16 20" fill="none" xmlns="http://www.w3.org/2000/svg">
<path d="M6.38814 20.0001C6.06419 19.9999 5.74597 19.9151 5.46535 19.7541L0.921782 17.144C0.352379 16.8156 0.00134258 16.2108 0 15.556V10.3359C0.000985026 9.68078 0.352069 9.07556 0.921782 8.74691L2.30194 7.9539V9.66392C2.3035 10.6466 2.83036 11.5544 3.68512 12.047L8.22969 14.657C9.08543 15.1492 10.1403 15.1492 10.996 14.657L12.7773 13.635V15.556C12.7763 16.2112 12.4252 16.8164 11.8555 17.145L7.31093 19.7551C7.03021 19.9157 6.712 20.0002 6.38814 20.0001Z" fill="#4E74FA"/>
<path d="M9.61186 14.1089C9.28823 14.1089 8.97033 14.0239 8.69008 13.8629L4.1455 11.2529C3.5754 10.9245 3.22391 10.3192 3.22272 9.66385V4.44377C3.2237 3.78836 3.57525 3.18299 4.1455 2.85475L8.69008 0.245713C9.26048 -0.0819043 9.96324 -0.0819043 10.5336 0.245713L15.0782 2.85575C15.6481 3.18425 15.9992 3.78956 16 4.44477V9.66485C15.9992 10.3201 15.6481 10.9254 15.0782 11.2539L10.5336 13.8639C10.2532 14.0244 9.93538 14.1089 9.61186 14.1089Z" fill="#FEAE37"/>
</svg>
