<svg width="88" height="65" viewBox="0 0 88 65" fill="none" xmlns="http://www.w3.org/2000/svg">
<path d="M82.7587 0.000199177H62.8155C60.3988 0.000199177 58.2036 1.41008 57.1975 3.60801L56.1813 5.82943L19.9627 5.83015C16.7757 5.83015 14.0799 8.18484 13.6515 11.3419L13.1352 15.1429H4.91982C1.93967 15.1429 -0.355331 17.7714 0.0455773 20.7238L6.19923 64.3819H79.3978L87.633 5.58022C88.0345 2.62854 85.7397 0 82.7595 0L82.7587 0.000199177ZM81.1035 17.0377L76.8567 46.3336L73.0636 19.3982C72.7327 16.9601 70.6496 15.1423 68.1894 15.1423L18.7422 15.143C19.2935 13.4379 20.8873 12.2363 22.7321 12.2363H76.9478C79.5059 12.2363 81.4699 14.5048 81.1033 17.0371L81.1035 17.0377Z" fill="url(#paint0_linear_193_6568)"/>
<defs>
<linearGradient id="paint0_linear_193_6568" x1="43.8394" y1="0" x2="43.8394" y2="64.3819" gradientUnits="userSpaceOnUse">
<stop stop-color="#C9D1E4"/>
<stop offset="1" stop-color="#E7EBF8"/>
</linearGradient>
</defs>
</svg>
