<svg width="84" height="76" viewBox="0 0 84 76" fill="none" xmlns="http://www.w3.org/2000/svg">
<g filter="url(#filter0_d_193_6565)">
<path d="M63.4202 29.9904C62.8483 28.1069 61.9025 26.4643 60.6487 25.1284C59.043 23.3106 56.9094 22.0622 54.5118 21.5147C53.3021 16.0395 49.9147 12.0973 45.0975 10.6299C39.8625 9.00927 33.7915 10.5861 29.9862 14.5502C26.6428 18.0325 25.543 22.8288 26.8408 27.9317C22.4416 29.0049 20.264 32.6623 20.022 36.1446C20 36.3855 20 36.6045 20 36.8235C20 40.9409 22.7055 45.562 28.7324 46H51.5644C54.6878 46 57.6793 44.8392 59.9669 42.7587C63.5522 39.6268 64.872 34.7429 63.4202 29.9904Z" fill="white"/>
</g>
<defs>



</defs>
</svg>
